<svg width="28" height="34" viewBox="0 0 28 34" fill="none" xmlns="http://www.w3.org/2000/svg">
<path d="M27.5 18.5326C27.5 26.2752 21.4399 32.5221 14 32.5221C6.56014 32.5221 0.5 26.2752 0.5 18.5326C0.5 10.7899 6.56014 4.54297 14 4.54297C21.4399 4.54297 27.5 10.7899 27.5 18.5326Z" fill="#00D889" fill-opacity="0.14" stroke="url(#paint0_linear_54_386)"/>
<path d="M22.3935 8.02849C22.307 8.11622 22.2205 8.20395 22.0476 8.20395C21.9611 8.20395 21.8746 8.20395 21.7881 8.11622L14.0899 2.41394L8.72713 6.27394V16.6258H19.3662V8.90577C19.3662 8.64258 19.5392 8.46713 19.7987 8.46713C20.0581 8.46713 20.2311 8.64258 20.2311 8.90577V17.0644C20.2311 17.3276 20.0581 17.5031 19.7987 17.5031H8.29465C8.03516 17.5031 7.86217 17.3276 7.86217 17.0644V6.88803L6.21874 8.11622C6.04575 8.20395 5.78626 8.20395 5.69976 8.02849C5.52677 7.85304 5.61327 7.58985 5.78626 7.4144L13.8304 1.62439C13.9169 1.53666 14.1764 1.53666 14.2629 1.62439L22.307 7.4144C22.48 7.58985 22.5665 7.85304 22.3935 8.02849ZM17.8092 6.36167C17.6362 6.18621 17.3768 6.18621 17.2038 6.27394L14.7819 8.3794L13.5709 6.97576C13.3979 6.80031 13.1384 6.80031 12.9655 6.88803L10.3706 8.64258C10.1976 8.73031 10.1111 8.99349 10.2841 9.16895C10.3706 9.25668 10.4571 9.3444 10.6301 9.3444C10.7165 9.3444 10.803 9.3444 10.8895 9.25668L13.2249 7.67758L14.5224 9.16895C14.6954 9.3444 14.9549 9.3444 15.1279 9.16895L17.7227 6.88803C17.8957 6.80031 17.9822 6.53712 17.8092 6.36167ZM11.0625 11.2744V15.2221C11.0625 15.4853 11.2355 15.6608 11.495 15.6608C11.7545 15.6608 11.9275 15.4853 11.9275 15.2221V11.2744C11.9275 11.0112 11.7545 10.8358 11.495 10.8358C11.322 10.8358 11.0625 11.0112 11.0625 11.2744ZM13.6574 11.2744V15.2221C13.6574 15.4853 13.8304 15.6608 14.0899 15.6608C14.3494 15.6608 14.5224 15.4853 14.5224 15.2221V11.2744C14.5224 11.0112 14.3494 10.8358 14.0899 10.8358C13.8304 10.8358 13.6574 11.0112 13.6574 11.2744ZM16.4253 10.6603V15.2221C16.4253 15.4853 16.5983 15.6608 16.8578 15.6608C17.1173 15.6608 17.2903 15.4853 17.2903 15.2221V10.6603C17.2903 10.3971 17.1173 10.2217 16.8578 10.2217C16.5983 10.2217 16.4253 10.4849 16.4253 10.6603Z" fill="#00D889" stroke="#00D889" stroke-width="0.5"/>
<defs>
<linearGradient id="paint0_linear_54_386" x1="4.5" y1="7.66536" x2="22.7141" y2="28.7838" gradientUnits="userSpaceOnUse">
<stop stop-color="#00D889"/>
<stop offset="1" stop-color="#007248"/>
</linearGradient>
</defs>
</svg>
