<svg width="28" height="28" viewBox="0 0 28 28" fill="none" xmlns="http://www.w3.org/2000/svg">
<circle cx="14" cy="14" r="13.5" fill="#00D889" fill-opacity="0.14" stroke="url(#paint0_linear_54_399)"/>
<path d="M19.1316 6.94141C19.4215 6.94149 19.7077 7.00706 19.9687 7.13321C20.2297 7.25936 20.4589 7.44284 20.639 7.66994C20.8192 7.89705 20.9458 8.16192 21.0093 8.44479C21.0728 8.72766 21.0716 9.02121 21.0057 9.30354C20.9399 9.58587 20.8112 9.84969 20.6291 10.0753C20.447 10.3009 20.2164 10.4825 19.9543 10.6065C19.6923 10.7305 19.4056 10.7937 19.1157 10.7913C18.8258 10.789 18.5402 10.7213 18.2801 10.5931L16.1973 12.6753C16.4308 13.0616 16.5649 13.5153 16.5649 13.9997C16.5649 14.3135 16.5085 14.6145 16.4058 14.8917L18.0401 16.2635C18.4142 16.0064 18.8672 15.8898 19.3189 15.9342C19.7707 15.9786 20.1922 16.1813 20.509 16.5064C20.8259 16.8315 21.0176 17.2581 21.0505 17.7108C21.0833 18.1636 20.955 18.6133 20.6884 18.9807C20.4217 19.3481 20.0338 19.6094 19.5932 19.7185C19.1526 19.8276 18.6876 19.7775 18.2803 19.577C17.873 19.3766 17.5497 19.0386 17.3675 18.6229C17.1852 18.2071 17.1557 17.7403 17.2843 17.305L15.6673 15.9491C15.2187 16.3341 14.6355 16.5664 13.9983 16.5664C13.5138 16.5664 13.0614 16.4317 12.6745 16.1994L11.7056 17.1676C12.0276 17.703 12.1433 18.3374 12.031 18.9519C11.9187 19.5664 11.5862 20.1189 11.0957 20.5058C10.6052 20.8926 9.99047 21.0874 9.3667 21.0534C8.74292 21.0195 8.15294 20.7592 7.70732 20.3214C7.26171 19.8836 6.99106 19.2983 6.94611 18.6752C6.90116 18.0522 7.08498 17.4341 7.46314 16.9368C7.84129 16.4396 8.3878 16.0974 9.00025 15.9742C9.61269 15.8511 10.249 15.9556 10.7899 16.268L11.7749 15.2831C11.5493 14.893 11.4309 14.4503 11.4316 13.9997C11.4316 13.5127 11.567 13.0578 11.8025 12.6702L10.815 11.7167C10.2775 12.0351 9.64235 12.1466 9.02857 12.0303C8.41478 11.9139 7.86451 11.5777 7.48089 11.0846C7.09727 10.5915 6.90665 9.97549 6.94476 9.35194C6.98287 8.72838 7.24709 8.14013 7.68789 7.69745C8.1287 7.25478 8.71582 6.98806 9.33921 6.94731C9.9626 6.90655 10.5794 7.09456 11.0741 7.47608C11.5688 7.8576 11.9074 8.40644 12.0263 9.01973C12.1453 9.63302 12.0365 10.2686 11.7204 10.8074L12.7214 11.7725C13.1099 11.5494 13.5502 11.4323 13.9983 11.4331C14.4661 11.4331 14.9043 11.5582 15.2816 11.7764L17.3837 9.67426C17.2481 9.3809 17.1885 9.05812 17.2104 8.73566C17.2324 8.41321 17.3352 8.10148 17.5093 7.8292C17.6835 7.55693 17.9233 7.33289 18.2069 7.17773C18.4904 7.02258 18.8084 6.9413 19.1316 6.94141ZM9.50661 17.2081C9.16625 17.2081 8.83983 17.3433 8.59916 17.584C8.35849 17.8246 8.22328 18.151 8.22328 18.4914C8.22328 18.8318 8.35849 19.1582 8.59916 19.3989C8.83983 19.6395 9.16625 19.7747 9.50661 19.7747C9.84697 19.7747 10.1734 19.6395 10.4141 19.3989C10.6547 19.1582 10.7899 18.8318 10.7899 18.4914C10.7899 18.151 10.6547 17.8246 10.4141 17.584C10.1734 17.3433 9.84697 17.2081 9.50661 17.2081ZM19.1316 17.2081C18.9614 17.2081 18.7982 17.2757 18.6779 17.396C18.5575 17.5163 18.4899 17.6796 18.4899 17.8497C18.4899 18.0199 18.5575 18.1831 18.6779 18.3035C18.7982 18.4238 18.9614 18.4914 19.1316 18.4914C19.3018 18.4914 19.465 18.4238 19.5853 18.3035C19.7057 18.1831 19.7733 18.0199 19.7733 17.8497C19.7733 17.6796 19.7057 17.5163 19.5853 17.396C19.465 17.2757 19.3018 17.2081 19.1316 17.2081ZM13.9983 12.7164C13.6579 12.7164 13.3315 12.8516 13.0908 13.0923C12.8502 13.333 12.7149 13.6594 12.7149 13.9997C12.7149 14.3401 12.8502 14.6665 13.0908 14.9072C13.3315 15.1479 13.6579 15.2831 13.9983 15.2831C14.3386 15.2831 14.6651 15.1479 14.9057 14.9072C15.1464 14.6665 15.2816 14.3401 15.2816 13.9997C15.2816 13.6594 15.1464 13.333 14.9057 13.0923C14.6651 12.8516 14.3386 12.7164 13.9983 12.7164ZM9.50661 8.22474C9.16625 8.22474 8.83983 8.35995 8.59916 8.60062C8.35849 8.84129 8.22328 9.16771 8.22328 9.50807C8.22328 9.84843 8.35849 10.1749 8.59916 10.4155C8.83983 10.6562 9.16625 10.7914 9.50661 10.7914C9.84697 10.7914 10.1734 10.6562 10.4141 10.4155C10.6547 10.1749 10.7899 9.84843 10.7899 9.50807C10.7899 9.16771 10.6547 8.84129 10.4141 8.60062C10.1734 8.35995 9.84697 8.22474 9.50661 8.22474ZM19.1316 8.22474C18.9614 8.22474 18.7982 8.29234 18.6779 8.41268C18.5575 8.53302 18.4899 8.69623 18.4899 8.86641C18.4899 9.03659 18.5575 9.1998 18.6779 9.32013C18.7982 9.44047 18.9614 9.50807 19.1316 9.50807C19.3018 9.50807 19.465 9.44047 19.5853 9.32013C19.7057 9.1998 19.7733 9.03659 19.7733 8.86641C19.7733 8.69623 19.7057 8.53302 19.5853 8.41268C19.465 8.29234 19.3018 8.22474 19.1316 8.22474Z" fill="#00D889" stroke="#00D889" stroke-width="0.5"/>
<defs>
<linearGradient id="paint0_linear_54_399" x1="4.5" y1="3.5" x2="22" y2="24.5" gradientUnits="userSpaceOnUse">
<stop stop-color="#00D889"/>
<stop offset="1" stop-color="#007248"/>
</linearGradient>
</defs>
</svg>
