<svg width="28" height="28" viewBox="0 0 28 28" fill="none" xmlns="http://www.w3.org/2000/svg">
<circle cx="14" cy="14" r="13.5" fill="#00D889" fill-opacity="0.14" stroke="url(#paint0_linear_54_379)"/>
<g clip-path="url(#clip0_54_379)">
<path d="M20.5103 21.251H7.23523C7.14742 21.2524 7.0602 21.2364 6.97865 21.2038C6.8971 21.1712 6.82285 21.1227 6.76024 21.0611C6.69763 20.9995 6.6479 20.9261 6.61396 20.8451C6.58001 20.7641 6.56253 20.6772 6.56253 20.5894C6.56253 20.5015 6.58001 20.4146 6.61396 20.3336C6.6479 20.2526 6.69763 20.1792 6.76024 20.1176C6.82285 20.056 6.8971 20.0075 6.97865 19.9749C7.0602 19.9423 7.14742 19.9263 7.23523 19.9277H20.5103C20.5981 19.9263 20.6853 19.9423 20.7668 19.9749C20.8484 20.0075 20.9226 20.056 20.9852 20.1176C21.0479 20.1792 21.0976 20.2526 21.1315 20.3336C21.1655 20.4146 21.183 20.5015 21.183 20.5894C21.183 20.6772 21.1655 20.7641 21.1315 20.8451C21.0976 20.9261 21.0479 20.9995 20.9852 21.0611C20.9226 21.1227 20.8484 21.1712 20.7668 21.2038C20.6853 21.2364 20.5981 21.2524 20.5103 21.251ZM5.36547 15.7933C5.23447 15.7935 5.10638 15.7547 4.99743 15.682C4.88848 15.6092 4.80357 15.5058 4.75346 15.3848C4.70334 15.2637 4.69028 15.1305 4.71593 15.0021C4.74158 14.8736 4.80478 14.7557 4.89752 14.6631L10.6959 8.86535C10.82 8.74128 10.9883 8.67158 11.1638 8.67158C11.3393 8.67158 11.5076 8.74128 11.6317 8.86535L15.4706 12.7051L21.0189 7.15655C21.0804 7.09511 21.1534 7.04638 21.2337 7.01316C21.314 6.97993 21.4001 6.96285 21.487 6.96289C21.574 6.96293 21.66 6.9801 21.7403 7.0134C21.8206 7.04671 21.8936 7.0955 21.955 7.157C22.0164 7.2185 22.0652 7.2915 22.0984 7.37183C22.1316 7.45216 22.1487 7.53825 22.1487 7.62518C22.1486 7.71211 22.1315 7.79818 22.0982 7.87848C22.0648 7.95877 22.0161 8.03172 21.9546 8.09316L15.9389 14.1088C15.8775 14.1702 15.8046 14.219 15.7243 14.2522C15.644 14.2855 15.558 14.3026 15.4711 14.3026C15.3842 14.3026 15.2981 14.2855 15.2179 14.2522C15.1376 14.219 15.0647 14.1702 15.0032 14.1088L11.1642 10.2697L5.83396 15.5996C5.77253 15.6612 5.69951 15.7101 5.6191 15.7433C5.53869 15.7766 5.45248 15.7936 5.36547 15.7933Z" fill="#00D889" stroke="#00D889" stroke-width="0.5"/>
<path d="M19.6016 8.05078C19.6014 8.35111 19.6903 8.64474 19.8571 8.89452C20.0239 9.14431 20.2609 9.33903 20.5384 9.45405C20.8158 9.56907 21.1211 9.59924 21.4157 9.54072C21.7103 9.4822 21.9809 9.33764 22.1933 9.12531C22.4057 8.91298 22.5503 8.64243 22.609 8.34787C22.6676 8.05332 22.6375 7.748 22.5226 7.47052C22.4077 7.19305 22.2131 6.95589 21.9633 6.78905C21.7136 6.6222 21.42 6.53317 21.1197 6.5332C20.7171 6.53325 20.331 6.69321 20.0463 6.9779C19.7616 7.2626 19.6016 7.64871 19.6016 8.05133V8.05078Z" fill="#00D889" stroke="#00D889" stroke-width="0.5"/>
</g>
<defs>
<linearGradient id="paint0_linear_54_379" x1="4.5" y1="3.5" x2="22" y2="24.5" gradientUnits="userSpaceOnUse">
<stop stop-color="#00D889"/>
<stop offset="1" stop-color="#007248"/>
</linearGradient>
<clipPath id="clip0_54_379">
<rect width="18.6667" height="18.6667" fill="white" transform="translate(4.66797 4.66602)"/>
</clipPath>
</defs>
</svg>
